<?xml version="1.0" encoding="iso-8859-1"?>
<!-- Uploaded to: SVG Repo, www.svgrepo.com, Generator: SVG Repo Mixer Tools -->
<svg height="800px" width="800px" version="1.1" id="Layer_1" xmlns="http://www.w3.org/2000/svg" xmlns:xlink="http://www.w3.org/1999/xlink" 
	 viewBox="0 0 512.005 512.005" xml:space="preserve">
<path style="fill:#A9A8AE;" d="M376.083,231.477c2.797-8.388,0.613-17.635-5.64-23.888l-32.969-32.967v-0.002
	c-0.016-0.016-0.028-0.033-0.042-0.047c-0.016-0.016-0.031-0.028-0.047-0.042l-16.462-16.46l-16.505-16.505
	c-6.253-6.253-15.505-8.435-23.888-5.64c-0.608,0.204-2.443,0.819-5.283,1.797c-29.595,10.201-170.774,60.732-223.925,113.882
	C20.82,282.108,2.693,321.51,0.278,362.557c-2.474,42.082,11.745,80.838,40.04,109.132C66.31,497.684,101.811,512,140.277,512
	c0.003,0,0.002,0,0.005,0c43.725,0,87.508-18.703,120.12-51.313c53.15-53.15,103.684-194.335,113.885-223.927
	C375.264,233.921,375.879,232.086,376.083,231.477z M46.885,365.297c1.743-29.62,15.042-58.273,37.449-80.679
	c38.187-38.185,145.092-81.177,197.39-99.72l6.188,6.186L59.05,419.944C49.974,404.058,45.709,385.301,46.885,365.297z
	 M227.39,427.672c-23.922,23.922-55.672,37.642-87.11,37.639c-17.525,0-34.028-4.314-48.193-12.378l228.838-228.838l6.189,6.189
	C308.586,282.57,265.617,389.445,227.39,427.672z"/>
<path style="fill:#AF2E08;" d="M304.417,141.565l16.505,16.505l16.462,16.46c0.016,0.016,0.031,0.028,0.047,0.042
	c0.016,0.016,0.028,0.033,0.042,0.047v0.002l32.969,32.967c6.253,6.253,8.436,15.5,5.64,23.888c-0.204,0.61-0.817,2.443-1.796,5.283
	l117.206-117.204c13.226-13.228,20.511-30.815,20.511-49.519c-0.002-18.707-7.288-36.294-20.513-49.514
	C478.263,7.292,460.676,0.006,441.971,0.006c-18.704,0-36.291,7.285-49.518,20.513L275.247,137.723
	c2.839-0.979,4.675-1.594,5.283-1.797C288.913,133.13,298.166,135.313,304.417,141.565z"/>
<path style="fill:#A78966;" d="M491.49,20.522c-0.059-0.059-0.121-0.114-0.181-0.171C478.103,7.231,460.594,0.006,441.971,0.006
	c-18.706,0-36.291,7.285-49.518,20.513L275.249,137.724c2.839-0.979,4.675-1.594,5.282-1.797c8.383-2.795,17.635-0.612,23.888,5.64
	l16.507,16.507l16.333,16.331l0.129,0.129c0.016,0.016,0.033,0.028,0.047,0.042c0.016,0.016,0.028,0.033,0.042,0.047v0.002
	l32.969,32.967c6.253,6.253,8.436,15.5,5.64,23.888c-0.204,0.61-0.817,2.443-1.796,5.283l117.206-117.204
	c13.226-13.228,20.511-30.815,20.511-49.519C512.001,51.329,504.714,33.742,491.49,20.522z"/>
<path style="fill:#B3D8F4;" d="M370.443,207.589l-32.969-32.967v-0.002c-0.016-0.016-0.028-0.033-0.042-0.047
	c-0.016-0.016-0.033-0.028-0.047-0.042l-0.129-0.129l-16.333-16.331l-16.507-16.507c-6.251-6.253-15.505-8.435-23.888-5.64
	c-0.609,0.204-2.443,0.819-5.282,1.797c-29.595,10.201-170.774,60.732-223.925,113.882C20.82,282.106,2.693,321.508,0.278,362.555
	c-2.47,41.996,11.689,80.678,39.869,108.956c0.058,0.058,0.114,0.118,0.171,0.176c25.992,25.995,61.493,40.311,99.96,40.311
	c0.003,0,0.002,0,0.005,0c43.725,0,87.51-18.703,120.119-51.313c53.15-53.15,103.684-194.335,113.885-223.927
	c0.979-2.839,1.592-4.673,1.796-5.283C378.88,223.089,376.695,213.842,370.443,207.589z M46.885,365.297
	c1.743-29.62,15.042-58.273,37.449-80.679c38.187-38.185,145.092-81.177,197.39-99.72l6.188,6.186L59.05,419.944
	C49.974,404.058,45.709,385.301,46.885,365.297z M227.39,427.672c-23.922,23.922-55.672,37.642-87.11,37.64
	c-17.525,0-34.028-4.314-48.193-12.378l228.838-228.838l6.188,6.191C308.586,282.57,265.617,389.445,227.39,427.672z"/>
<path style="fill:#8CB7E8;" d="M320.923,158.072l-16.507-16.507c-6.251-6.253-15.505-8.435-23.888-5.64
	c-0.608,0.204-2.443,0.819-5.282,1.797c-29.595,10.201-170.774,60.732-223.925,113.882C20.818,282.106,2.691,321.508,0.276,362.555
	c-2.47,41.996,11.689,80.678,39.869,108.956l297.108-297.108L320.923,158.072z M59.05,419.944
	c-9.076-15.886-13.342-34.643-12.165-54.647c1.743-29.62,15.042-58.273,37.449-80.679c38.187-38.185,145.092-81.177,197.39-99.72
	l6.188,6.186L59.05,419.944z"/>
<path style="fill:#806749;" d="M392.451,20.518L275.247,137.724c2.839-0.979,4.675-1.594,5.282-1.797
	c8.383-2.795,17.635-0.612,23.888,5.64l16.507,16.507l16.333,16.331L491.309,20.352C478.103,7.231,460.594,0.006,441.971,0.006
	C423.265,0.006,405.678,7.291,392.451,20.518z"/>
</svg>