<svg width="134" height="134" viewBox="0 0 134 134" fill="none" xmlns="http://www.w3.org/2000/svg">
<g clip-path="url(#clip0_179_18)">
<path d="M66.9665 8.375C81.1872 8.375 96.2706 20.3512 96.2706 29.2916V50.2165C96.2706 58.2732 92.9206 73.6833 83.9384 80.7559C81.6479 82.5566 80.4586 85.425 80.802 88.3227C81.1454 91.2205 82.9711 93.7288 85.6218 94.9474L122.066 112.229C122.35 112.359 125.558 112.899 125.558 117.38L125.562 125.554L8.37919 125.562V117.066C8.37919 113.737 10.8749 112.69 11.8757 112.233L48.6504 94.8762C51.2885 93.666 53.1101 91.1702 53.4618 88.2892C53.8136 85.4082 52.6536 82.5524 50.3924 80.7392C41.6907 73.7544 37.6372 58.3989 37.6372 50.2249V29.2999C37.6414 20.5523 52.8714 8.38338 66.9665 8.38338V8.375ZM66.9665 0C48.4745 0 29.2622 15.4351 29.2622 29.2957V50.2207C29.2622 59.3662 33.4372 77.8624 45.1454 87.2675L8.36662 104.625C8.36662 104.625 0 108.352 0 112.995V125.562C0 130.189 3.74781 133.933 8.36662 133.933H125.558C130.185 133.933 133.929 130.185 133.929 125.562V112.995C133.929 108.075 125.558 104.625 125.558 104.625L89.1142 87.3429C100.714 78.2141 104.641 60.2749 104.641 50.2207V29.2957C104.641 15.4351 85.4543 0.0041875 66.9623 0.0041875L66.9665 0Z" fill="black"/>
</g>
<defs>
<clipPath id="clip0_179_18">
<rect width="134" height="134" fill="white"/>
</clipPath>
</defs>
</svg>
